<svg xmlns="http://www.w3.org/2000/svg" fill="var(--calendar-text-color)" color="var(--calendar-text-color)" font-family="-apple-system,BlinkMacSystemFont,&quot;Segoe UI&quot;,&quot;Noto Sans&quot;,Helvetica,Arial,sans-serif" font-size="12" style="color-scheme:light dark;--calendar-text-color:#1f2328;--calendar-level-0:#eff2f5;--calendar-level-1:#A5D6E4;--calendar-level-2:#52A3C3;--calendar-level-3:#006699;--calendar-level-4:#003960;background:0 0" text-anchor="middle" viewBox="0 0 717 142"><g stroke="rgba(31, 35, 40, 0.05)" stroke-width=".5" aria-label="cell"><rect width="10" height="10" x="29.5" y="16.5" fill="var(--calendar-level-3)" rx="2" ry="2"/><rect width="10" height="10" x="29.5" y="29.5" fill="var(--calendar-level-3)" rx="2" ry="2"/><rect width="10" height="10" x="29.5" y="42.5" fill="var(--calendar-level-2)" rx="2" ry="2"/><rect width="10" height="10" x="29.5" y="55.5" fill="var(--calendar-level-3)" rx="2" ry="2"/><rect width="10" height="10" x="29.5" y="68.5" fill="var(--calendar-level-1)" rx="2" ry="2"/><rect width="10" height="10" x="29.5" y="81.5" fill="var(--calendar-level-0)" rx="2" ry="2"/><rect width="10" height="10" x="29.5" y="94.5" fill="var(--calendar-level-0)" rx="2" ry="2"/><rect width="10" height="10" x="42.5" y="16.5" fill="var(--calendar-level-1)" rx="2" ry="2"/><rect width="10" height="10" x="42.5" y="29.5" fill="var(--calendar-level-2)" rx="2" ry="2"/><rect width="10" height="10" x="42.5" y="42.5" fill="var(--calendar-level-1)" rx="2" ry="2"/><rect width="10" height="10" x="42.5" y="55.5" fill="var(--calendar-level-2)" rx="2" ry="2"/><rect width="10" height="10" x="42.5" y="68.5" fill="var(--calendar-level-3)" rx="2" ry="2"/><rect width="10" height="10" x="42.5" y="81.5" fill="var(--calendar-level-0)" rx="2" ry="2"/><rect width="10" height="10" x="42.5" y="94.5" fill="var(--calendar-level-0)" rx="2" ry="2"/><rect width="10" height="10" x="55.5" y="16.5" fill="var(--calendar-level-3)" rx="2" ry="2"/><rect width="10" height="10" x="55.5" y="29.5" fill="var(--calendar-level-2)" rx="2" ry="2"/><rect width="10" height="10" x="55.5" y="42.5" fill="var(--calendar-level-3)" rx="2" ry="2"/><rect width="10" height="10" x="55.5" y="55.5" fill="var(--calendar-level-2)" rx="2" ry="2"/><rect width="10" height="10" x="55.5" y="68.5" fill="var(--calendar-level-3)" rx="2" ry="2"/><rect width="10" height="10" x="55.5" y="81.5" fill="var(--calendar-level-0)" rx="2" ry="2"/><rect width="10" height="10" x="55.5" y="94.5" fill="var(--calendar-level-0)" rx="2" ry="2"/><rect width="10" height="10" x="68.5" y="16.5" fill="var(--calendar-level-2)" rx="2" ry="2"/><rect width="10" height="10" x="68.5" y="29.5" fill="var(--calendar-level-2)" rx="2" ry="2"/><rect width="10" height="10" x="68.5" y="42.5" fill="var(--calendar-level-4)" rx="2" ry="2"/><rect width="10" height="10" x="68.5" y="55.5" fill="var(--calendar-level-1)" rx="2" ry="2"/><rect width="10" height="10" x="68.5" y="68.5" fill="var(--calendar-level-2)" rx="2" ry="2"/><rect width="10" height="10" x="68.5" y="81.5" fill="var(--calendar-level-0)" rx="2" ry="2"/><rect width="10" height="10" x="68.5" y="94.5" fill="var(--calendar-level-0)" rx="2" ry="2"/><rect width="10" height="10" x="81.5" y="16.5" fill="var(--calendar-level-3)" rx="2" ry="2"/><rect width="10" height="10" x="81.5" y="29.5" fill="var(--calendar-level-2)" rx="2" ry="2"/><rect width="10" height="10" x="81.5" y="42.5" fill="var(--calendar-level-2)" rx="2" ry="2"/><rect width="10" height="10" x="81.5" y="55.5" fill="var(--calendar-level-1)" rx="2" ry="2"/><rect width="10" height="10" x="81.5" y="68.5" fill="var(--calendar-level-2)" rx="2" ry="2"/><rect width="10" height="10" x="81.5" y="81.5" fill="var(--calendar-level-1)" rx="2" ry="2"/><rect width="10" height="10" x="81.5" y="94.5" fill="var(--calendar-level-2)" rx="2" ry="2"/><rect width="10" height="10" x="94.5" y="16.5" fill="var(--calendar-level-2)" rx="2" ry="2"/><rect width="10" height="10" x="94.5" y="29.5" fill="var(--calendar-level-2)" rx="2" ry="2"/><rect width="10" height="10" x="94.5" y="42.5" fill="var(--calendar-level-3)" rx="2" ry="2"/><rect width="10" height="10" x="94.5" y="55.5" fill="var(--calendar-level-2)" rx="2" ry="2"/><rect width="10" height="10" x="94.5" y="68.5" fill="var(--calendar-level-0)" rx="2" ry="2"/><rect width="10" height="10" x="94.5" y="81.5" fill="var(--calendar-level-0)" rx="2" ry="2"/><rect width="10" height="10" x="94.5" y="94.5" fill="var(--calendar-level-0)" rx="2" ry="2"/><rect width="10" height="10" x="107.5" y="16.5" fill="var(--calendar-level-0)" rx="2" ry="2"/><rect width="10" height="10" x="107.5" y="29.5" fill="var(--calendar-level-2)" rx="2" ry="2"/><rect width="10" height="10" x="107.5" y="42.5" fill="var(--calendar-level-1)" rx="2" ry="2"/><rect width="10" height="10" x="107.5" y="55.5" fill="var(--calendar-level-3)" rx="2" ry="2"/><rect width="10" height="10" x="107.5" y="68.5" fill="var(--calendar-level-2)" rx="2" ry="2"/><rect width="10" height="10" x="107.5" y="81.5" fill="var(--calendar-level-0)" rx="2" ry="2"/><rect width="10" height="10" x="107.5" y="94.5" fill="var(--calendar-level-0)" rx="2" ry="2"/><rect width="10" height="10" x="120.5" y="16.5" fill="var(--calendar-level-2)" rx="2" ry="2"/><rect width="10" height="10" x="120.5" y="29.5" fill="var(--calendar-level-2)" rx="2" ry="2"/><rect width="10" height="10" x="120.5" y="42.5" fill="var(--calendar-level-3)" rx="2" ry="2"/><rect width="10" height="10" x="120.5" y="55.5" fill="var(--calendar-level-0)" rx="2" ry="2"/><rect width="10" height="10" x="120.5" y="68.5" fill="var(--calendar-level-1)" rx="2" ry="2"/><rect width="10" height="10" x="120.5" y="81.5" fill="var(--calendar-level-0)" rx="2" ry="2"/><rect width="10" height="10" x="120.5" y="94.5" fill="var(--calendar-level-0)" rx="2" ry="2"/><rect width="10" height="10" x="133.5" y="16.5" fill="var(--calendar-level-2)" rx="2" ry="2"/><rect width="10" height="10" x="133.5" y="29.5" fill="var(--calendar-level-3)" rx="2" ry="2"/><rect width="10" height="10" x="133.5" y="42.5" fill="var(--calendar-level-2)" rx="2" ry="2"/><rect width="10" height="10" x="133.5" y="55.5" fill="var(--calendar-level-2)" rx="2" ry="2"/><rect width="10" height="10" x="133.5" y="68.5" fill="var(--calendar-level-2)" rx="2" ry="2"/><rect width="10" height="10" x="133.5" y="81.5" fill="var(--calendar-level-0)" rx="2" ry="2"/><rect width="10" height="10" x="133.5" y="94.5" fill="var(--calendar-level-0)" rx="2" ry="2"/><rect width="10" height="10" x="146.5" y="16.5" fill="var(--calendar-level-3)" rx="2" ry="2"/><rect width="10" height="10" x="146.5" y="29.5" fill="var(--calendar-level-2)" rx="2" ry="2"/><rect width="10" height="10" x="146.5" y="42.5" fill="var(--calendar-level-1)" rx="2" ry="2"/><rect width="10" height="10" x="146.5" y="55.5" fill="var(--calendar-level-2)" rx="2" ry="2"/><rect width="10" height="10" x="146.5" y="68.5" fill="var(--calendar-level-3)" rx="2" ry="2"/><rect width="10" height="10" x="146.5" y="81.5" fill="var(--calendar-level-0)" rx="2" ry="2"/><rect width="10" height="10" x="146.5" y="94.5" fill="var(--calendar-level-0)" rx="2" ry="2"/><rect width="10" height="10" x="159.5" y="16.5" fill="var(--calendar-level-2)" rx="2" ry="2"/><rect width="10" height="10" x="159.5" y="29.5" fill="var(--calendar-level-0)" rx="2" ry="2"/><rect width="10" height="10" x="159.5" y="42.5" fill="var(--calendar-level-3)" rx="2" ry="2"/><rect width="10" height="10" x="159.5" y="55.5" fill="var(--calendar-level-1)" rx="2" ry="2"/><rect width="10" height="10" x="159.5" y="68.5" fill="var(--calendar-level-2)" rx="2" ry="2"/><rect width="10" height="10" x="159.5" y="81.5" fill="var(--calendar-level-0)" rx="2" ry="2"/><rect width="10" height="10" x="159.5" y="94.5" fill="var(--calendar-level-0)" rx="2" ry="2"/><rect width="10" height="10" x="172.5" y="16.5" fill="var(--calendar-level-3)" rx="2" ry="2"/><rect width="10" height="10" x="172.5" y="29.5" fill="var(--calendar-level-2)" rx="2" ry="2"/><rect width="10" height="10" x="172.5" y="42.5" fill="var(--calendar-level-0)" rx="2" ry="2"/><rect width="10" height="10" x="172.5" y="55.5" fill="var(--calendar-level-0)" rx="2" ry="2"/><rect width="10" height="10" x="172.5" y="68.5" fill="var(--calendar-level-3)" rx="2" ry="2"/><rect width="10" height="10" x="172.5" y="81.5" fill="var(--calendar-level-0)" rx="2" ry="2"/><rect width="10" height="10" x="172.5" y="94.5" fill="var(--calendar-level-0)" rx="2" ry="2"/><rect width="10" height="10" x="185.5" y="16.5" fill="var(--calendar-level-2)" rx="2" ry="2"/><rect width="10" height="10" x="185.5" y="29.5" fill="var(--calendar-level-1)" rx="2" ry="2"/><rect width="10" height="10" x="185.5" y="42.5" fill="var(--calendar-level-0)" rx="2" ry="2"/><rect width="10" height="10" x="185.5" y="55.5" fill="var(--calendar-level-3)" rx="2" ry="2"/><rect width="10" height="10" x="185.5" y="68.5" fill="var(--calendar-level-0)" rx="2" ry="2"/><rect width="10" height="10" x="185.5" y="81.5" fill="var(--calendar-level-0)" rx="2" ry="2"/><rect width="10" height="10" x="185.5" y="94.5" fill="var(--calendar-level-0)" rx="2" ry="2"/><rect width="10" height="10" x="198.5" y="16.5" fill="var(--calendar-level-0)" rx="2" ry="2"/><rect width="10" height="10" x="198.5" y="29.5" fill="var(--calendar-level-2)" rx="2" ry="2"/><rect width="10" height="10" x="198.5" y="42.5" fill="var(--calendar-level-2)" rx="2" ry="2"/><rect width="10" height="10" x="198.5" y="55.5" fill="var(--calendar-level-1)" rx="2" ry="2"/><rect width="10" height="10" x="198.5" y="68.5" fill="var(--calendar-level-2)" rx="2" ry="2"/><rect width="10" height="10" x="198.5" y="81.5" fill="var(--calendar-level-0)" rx="2" ry="2"/><rect width="10" height="10" x="198.5" y="94.5" fill="var(--calendar-level-0)" rx="2" ry="2"/><rect width="10" height="10" x="211.5" y="16.5" fill="var(--calendar-level-3)" rx="2" ry="2"/><rect width="10" height="10" x="211.5" y="29.5" fill="var(--calendar-level-2)" rx="2" ry="2"/><rect width="10" height="10" x="211.5" y="42.5" fill="var(--calendar-level-4)" rx="2" ry="2"/><rect width="10" height="10" x="211.5" y="55.5" fill="var(--calendar-level-3)" rx="2" ry="2"/><rect width="10" height="10" x="211.5" y="68.5" fill="var(--calendar-level-0)" rx="2" ry="2"/><rect width="10" height="10" x="211.5" y="81.5" fill="var(--calendar-level-0)" rx="2" ry="2"/><rect width="10" height="10" x="211.5" y="94.5" fill="var(--calendar-level-0)" rx="2" ry="2"/><rect width="10" height="10" x="224.5" y="16.5" fill="var(--calendar-level-2)" rx="2" ry="2"/><rect width="10" height="10" x="224.5" y="29.5" fill="var(--calendar-level-2)" rx="2" ry="2"/><rect width="10" height="10" x="224.5" y="42.5" fill="var(--calendar-level-0)" rx="2" ry="2"/><rect width="10" height="10" x="224.5" y="55.5" fill="var(--calendar-level-2)" rx="2" ry="2"/><rect width="10" height="10" x="224.5" y="68.5" fill="var(--calendar-level-1)" rx="2" ry="2"/><rect width="10" height="10" x="224.5" y="81.5" fill="var(--calendar-level-0)" rx="2" ry="2"/><rect width="10" height="10" x="224.5" y="94.5" fill="var(--calendar-level-0)" rx="2" ry="2"/><rect width="10" height="10" x="237.5" y="16.5" fill="var(--calendar-level-0)" rx="2" ry="2"/><rect width="10" height="10" x="237.5" y="29.5" fill="var(--calendar-level-0)" rx="2" ry="2"/><rect width="10" height="10" x="237.5" y="42.5" fill="var(--calendar-level-0)" rx="2" ry="2"/><rect width="10" height="10" x="237.5" y="55.5" fill="var(--calendar-level-0)" rx="2" ry="2"/><rect width="10" height="10" x="237.5" y="68.5" fill="var(--calendar-level-0)" rx="2" ry="2"/><rect width="10" height="10" x="237.5" y="81.5" fill="var(--calendar-level-0)" rx="2" ry="2"/><rect width="10" height="10" x="237.5" y="94.5" fill="var(--calendar-level-0)" rx="2" ry="2"/><rect width="10" height="10" x="250.5" y="16.5" fill="var(--calendar-level-0)" rx="2" ry="2"/><rect width="10" height="10" x="250.5" y="29.5" fill="var(--calendar-level-0)" rx="2" ry="2"/><rect width="10" height="10" x="250.5" y="42.5" fill="var(--calendar-level-0)" rx="2" ry="2"/><rect width="10" height="10" x="250.5" y="55.5" fill="var(--calendar-level-0)" rx="2" ry="2"/><rect width="10" height="10" x="250.5" y="68.5" fill="var(--calendar-level-0)" rx="2" ry="2"/><rect width="10" height="10" x="250.5" y="81.5" fill="var(--calendar-level-0)" rx="2" ry="2"/><rect width="10" height="10" x="250.5" y="94.5" fill="var(--calendar-level-0)" rx="2" ry="2"/><rect width="10" height="10" x="263.5" y="16.5" fill="var(--calendar-level-0)" rx="2" ry="2"/><rect width="10" height="10" x="263.5" y="29.5" fill="var(--calendar-level-0)" rx="2" ry="2"/><rect width="10" height="10" x="263.5" y="42.5" fill="var(--calendar-level-0)" rx="2" ry="2"/><rect width="10" height="10" x="263.5" y="55.5" fill="var(--calendar-level-0)" rx="2" ry="2"/><rect width="10" height="10" x="263.5" y="68.5" fill="var(--calendar-level-0)" rx="2" ry="2"/><rect width="10" height="10" x="263.5" y="81.5" fill="var(--calendar-level-0)" rx="2" ry="2"/><rect width="10" height="10" x="263.5" y="94.5" fill="var(--calendar-level-0)" rx="2" ry="2"/><rect width="10" height="10" x="276.5" y="16.5" fill="var(--calendar-level-0)" rx="2" ry="2"/><rect width="10" height="10" x="276.5" y="29.5" fill="var(--calendar-level-0)" rx="2" ry="2"/><rect width="10" height="10" x="276.5" y="42.5" fill="var(--calendar-level-0)" rx="2" ry="2"/><rect width="10" height="10" x="276.5" y="55.5" fill="var(--calendar-level-0)" rx="2" ry="2"/><rect width="10" height="10" x="276.5" y="68.5" fill="var(--calendar-level-0)" rx="2" ry="2"/><rect width="10" height="10" x="276.5" y="81.5" fill="var(--calendar-level-0)" rx="2" ry="2"/><rect width="10" height="10" x="276.5" y="94.5" fill="var(--calendar-level-0)" rx="2" ry="2"/><rect width="10" height="10" x="289.5" y="16.5" fill="var(--calendar-level-0)" rx="2" ry="2"/><rect width="10" height="10" x="289.5" y="29.5" fill="var(--calendar-level-0)" rx="2" ry="2"/><rect width="10" height="10" x="289.5" y="42.5" fill="var(--calendar-level-0)" rx="2" ry="2"/><rect width="10" height="10" x="289.5" y="55.5" fill="var(--calendar-level-0)" rx="2" ry="2"/><rect width="10" height="10" x="289.5" y="68.5" fill="var(--calendar-level-0)" rx="2" ry="2"/><rect width="10" height="10" x="289.5" y="81.5" fill="var(--calendar-level-0)" rx="2" ry="2"/><rect width="10" height="10" x="289.5" y="94.5" fill="var(--calendar-level-0)" rx="2" ry="2"/><rect width="10" height="10" x="302.5" y="16.5" fill="var(--calendar-level-0)" rx="2" ry="2"/><rect width="10" height="10" x="302.5" y="29.5" fill="var(--calendar-level-0)" rx="2" ry="2"/><rect width="10" height="10" x="302.5" y="42.5" fill="var(--calendar-level-0)" rx="2" ry="2"/><rect width="10" height="10" x="302.5" y="55.5" fill="var(--calendar-level-0)" rx="2" ry="2"/><rect width="10" height="10" x="302.5" y="68.5" fill="var(--calendar-level-0)" rx="2" ry="2"/><rect width="10" height="10" x="302.5" y="81.5" fill="var(--calendar-level-0)" rx="2" ry="2"/><rect width="10" height="10" x="302.5" y="94.5" fill="var(--calendar-level-0)" rx="2" ry="2"/><rect width="10" height="10" x="315.5" y="16.5" fill="var(--calendar-level-2)" rx="2" ry="2"/><rect width="10" height="10" x="315.5" y="29.5" fill="var(--calendar-level-2)" rx="2" ry="2"/><rect width="10" height="10" x="315.5" y="42.5" fill="var(--calendar-level-0)" rx="2" ry="2"/><rect width="10" height="10" x="315.5" y="55.5" fill="var(--calendar-level-2)" rx="2" ry="2"/><rect width="10" height="10" x="315.5" y="68.5" fill="var(--calendar-level-1)" rx="2" ry="2"/><rect width="10" height="10" x="315.5" y="81.5" fill="var(--calendar-level-0)" rx="2" ry="2"/><rect width="10" height="10" x="315.5" y="94.5" fill="var(--calendar-level-0)" rx="2" ry="2"/><rect width="10" height="10" x="328.5" y="16.5" fill="var(--calendar-level-2)" rx="2" ry="2"/><rect width="10" height="10" x="328.5" y="29.5" fill="var(--calendar-level-2)" rx="2" ry="2"/><rect width="10" height="10" x="328.5" y="42.5" fill="var(--calendar-level-1)" rx="2" ry="2"/><rect width="10" height="10" x="328.5" y="55.5" fill="var(--calendar-level-2)" rx="2" ry="2"/><rect width="10" height="10" x="328.5" y="68.5" fill="var(--calendar-level-2)" rx="2" ry="2"/><rect width="10" height="10" x="328.5" y="81.5" fill="var(--calendar-level-0)" rx="2" ry="2"/><rect width="10" height="10" x="328.5" y="94.5" fill="var(--calendar-level-0)" rx="2" ry="2"/><rect width="10" height="10" x="341.5" y="16.5" fill="var(--calendar-level-2)" rx="2" ry="2"/><rect width="10" height="10" x="341.5" y="29.5" fill="var(--calendar-level-4)" rx="2" ry="2"/><rect width="10" height="10" x="341.5" y="42.5" fill="var(--calendar-level-4)" rx="2" ry="2"/><rect width="10" height="10" x="341.5" y="55.5" fill="var(--calendar-level-1)" rx="2" ry="2"/><rect width="10" height="10" x="341.5" y="68.5" fill="var(--calendar-level-3)" rx="2" ry="2"/><rect width="10" height="10" x="341.5" y="81.5" fill="var(--calendar-level-0)" rx="2" ry="2"/><rect width="10" height="10" x="341.5" y="94.5" fill="var(--calendar-level-0)" rx="2" ry="2"/><rect width="10" height="10" x="354.5" y="16.5" fill="var(--calendar-level-3)" rx="2" ry="2"/><rect width="10" height="10" x="354.5" y="29.5" fill="var(--calendar-level-1)" rx="2" ry="2"/><rect width="10" height="10" x="354.5" y="42.5" fill="var(--calendar-level-3)" rx="2" ry="2"/><rect width="10" height="10" x="354.5" y="55.5" fill="var(--calendar-level-1)" rx="2" ry="2"/><rect width="10" height="10" x="354.5" y="68.5" fill="var(--calendar-level-3)" rx="2" ry="2"/><rect width="10" height="10" x="354.5" y="81.5" fill="var(--calendar-level-0)" rx="2" ry="2"/><rect width="10" height="10" x="354.5" y="94.5" fill="var(--calendar-level-0)" rx="2" ry="2"/><rect width="10" height="10" x="367.5" y="16.5" fill="var(--calendar-level-3)" rx="2" ry="2"/><rect width="10" height="10" x="367.5" y="29.5" fill="var(--calendar-level-2)" rx="2" ry="2"/><rect width="10" height="10" x="367.5" y="42.5" fill="var(--calendar-level-2)" rx="2" ry="2"/><rect width="10" height="10" x="367.5" y="55.5" fill="var(--calendar-level-1)" rx="2" ry="2"/><rect width="10" height="10" x="367.5" y="68.5" fill="var(--calendar-level-0)" rx="2" ry="2"/><rect width="10" height="10" x="367.5" y="81.5" fill="var(--calendar-level-0)" rx="2" ry="2"/><rect width="10" height="10" x="367.5" y="94.5" fill="var(--calendar-level-0)" rx="2" ry="2"/><rect width="10" height="10" x="380.5" y="16.5" fill="var(--calendar-level-2)" rx="2" ry="2"/><rect width="10" height="10" x="380.5" y="29.5" fill="var(--calendar-level-3)" rx="2" ry="2"/><rect width="10" height="10" x="380.5" y="42.5" fill="var(--calendar-level-0)" rx="2" ry="2"/><rect width="10" height="10" x="380.5" y="55.5" fill="var(--calendar-level-2)" rx="2" ry="2"/><rect width="10" height="10" x="380.5" y="68.5" fill="var(--calendar-level-2)" rx="2" ry="2"/><rect width="10" height="10" x="380.5" y="81.5" fill="var(--calendar-level-0)" rx="2" ry="2"/><rect width="10" height="10" x="380.5" y="94.5" fill="var(--calendar-level-0)" rx="2" ry="2"/><rect width="10" height="10" x="393.5" y="16.5" fill="var(--calendar-level-2)" rx="2" ry="2"/><rect width="10" height="10" x="393.5" y="29.5" fill="var(--calendar-level-2)" rx="2" ry="2"/><rect width="10" height="10" x="393.5" y="42.5" fill="var(--calendar-level-0)" rx="2" ry="2"/><rect width="10" height="10" x="393.5" y="55.5" fill="var(--calendar-level-2)" rx="2" ry="2"/><rect width="10" height="10" x="393.5" y="68.5" fill="var(--calendar-level-0)" rx="2" ry="2"/><rect width="10" height="10" x="393.5" y="81.5" fill="var(--calendar-level-0)" rx="2" ry="2"/><rect width="10" height="10" x="393.5" y="94.5" fill="var(--calendar-level-0)" rx="2" ry="2"/><rect width="10" height="10" x="406.5" y="16.5" fill="var(--calendar-level-3)" rx="2" ry="2"/><rect width="10" height="10" x="406.5" y="29.5" fill="var(--calendar-level-0)" rx="2" ry="2"/><rect width="10" height="10" x="406.5" y="42.5" fill="var(--calendar-level-0)" rx="2" ry="2"/><rect width="10" height="10" x="406.5" y="55.5" fill="var(--calendar-level-3)" rx="2" ry="2"/><rect width="10" height="10" x="406.5" y="68.5" fill="var(--calendar-level-0)" rx="2" ry="2"/><rect width="10" height="10" x="406.5" y="81.5" fill="var(--calendar-level-0)" rx="2" ry="2"/><rect width="10" height="10" x="406.5" y="94.5" fill="var(--calendar-level-0)" rx="2" ry="2"/><rect width="10" height="10" x="419.5" y="16.5" fill="var(--calendar-level-2)" rx="2" ry="2"/><rect width="10" height="10" x="419.5" y="29.5" fill="var(--calendar-level-2)" rx="2" ry="2"/><rect width="10" height="10" x="419.5" y="42.5" fill="var(--calendar-level-2)" rx="2" ry="2"/><rect width="10" height="10" x="419.5" y="55.5" fill="var(--calendar-level-2)" rx="2" ry="2"/><rect width="10" height="10" x="419.5" y="68.5" fill="var(--calendar-level-3)" rx="2" ry="2"/><rect width="10" height="10" x="419.5" y="81.5" fill="var(--calendar-level-0)" rx="2" ry="2"/><rect width="10" height="10" x="419.5" y="94.5" fill="var(--calendar-level-0)" rx="2" ry="2"/><rect width="10" height="10" x="432.5" y="16.5" fill="var(--calendar-level-2)" rx="2" ry="2"/><rect width="10" height="10" x="432.5" y="29.5" fill="var(--calendar-level-2)" rx="2" ry="2"/><rect width="10" height="10" x="432.5" y="42.5" fill="var(--calendar-level-1)" rx="2" ry="2"/><rect width="10" height="10" x="432.5" y="55.5" fill="var(--calendar-level-2)" rx="2" ry="2"/><rect width="10" height="10" x="432.5" y="68.5" fill="var(--calendar-level-1)" rx="2" ry="2"/><rect width="10" height="10" x="432.5" y="81.5" fill="var(--calendar-level-0)" rx="2" ry="2"/><rect width="10" height="10" x="432.5" y="94.5" fill="var(--calendar-level-0)" rx="2" ry="2"/><rect width="10" height="10" x="445.5" y="16.5" fill="var(--calendar-level-2)" rx="2" ry="2"/><rect width="10" height="10" x="445.5" y="29.5" fill="var(--calendar-level-3)" rx="2" ry="2"/><rect width="10" height="10" x="445.5" y="42.5" fill="var(--calendar-level-2)" rx="2" ry="2"/><rect width="10" height="10" x="445.5" y="55.5" fill="var(--calendar-level-3)" rx="2" ry="2"/><rect width="10" height="10" x="445.5" y="68.5" fill="var(--calendar-level-2)" rx="2" ry="2"/><rect width="10" height="10" x="445.5" y="81.5" fill="var(--calendar-level-0)" rx="2" ry="2"/><rect width="10" height="10" x="445.5" y="94.5" fill="var(--calendar-level-0)" rx="2" ry="2"/><rect width="10" height="10" x="458.5" y="16.5" fill="var(--calendar-level-2)" rx="2" ry="2"/><rect width="10" height="10" x="458.5" y="29.5" fill="var(--calendar-level-4)" rx="2" ry="2"/><rect width="10" height="10" x="458.5" y="42.5" fill="var(--calendar-level-3)" rx="2" ry="2"/><rect width="10" height="10" x="458.5" y="55.5" fill="var(--calendar-level-2)" rx="2" ry="2"/><rect width="10" height="10" x="458.5" y="68.5" fill="var(--calendar-level-2)" rx="2" ry="2"/><rect width="10" height="10" x="458.5" y="81.5" fill="var(--calendar-level-0)" rx="2" ry="2"/><rect width="10" height="10" x="458.5" y="94.5" fill="var(--calendar-level-0)" rx="2" ry="2"/><rect width="10" height="10" x="471.5" y="16.5" fill="var(--calendar-level-2)" rx="2" ry="2"/><rect width="10" height="10" x="471.5" y="29.5" fill="var(--calendar-level-1)" rx="2" ry="2"/><rect width="10" height="10" x="471.5" y="42.5" fill="var(--calendar-level-1)" rx="2" ry="2"/><rect width="10" height="10" x="471.5" y="55.5" fill="var(--calendar-level-1)" rx="2" ry="2"/><rect width="10" height="10" x="471.5" y="68.5" fill="var(--calendar-level-0)" rx="2" ry="2"/><rect width="10" height="10" x="471.5" y="81.5" fill="var(--calendar-level-0)" rx="2" ry="2"/><rect width="10" height="10" x="471.5" y="94.5" fill="var(--calendar-level-0)" rx="2" ry="2"/><rect width="10" height="10" x="484.5" y="16.5" fill="var(--calendar-level-2)" rx="2" ry="2"/><rect width="10" height="10" x="484.5" y="29.5" fill="var(--calendar-level-1)" rx="2" ry="2"/><rect width="10" height="10" x="484.5" y="42.5" fill="var(--calendar-level-1)" rx="2" ry="2"/><rect width="10" height="10" x="484.5" y="55.5" fill="var(--calendar-level-2)" rx="2" ry="2"/><rect width="10" height="10" x="484.5" y="68.5" fill="var(--calendar-level-1)" rx="2" ry="2"/><rect width="10" height="10" x="484.5" y="81.5" fill="var(--calendar-level-0)" rx="2" ry="2"/><rect width="10" height="10" x="484.5" y="94.5" fill="var(--calendar-level-0)" rx="2" ry="2"/><rect width="10" height="10" x="497.5" y="16.5" fill="var(--calendar-level-3)" rx="2" ry="2"/><rect width="10" height="10" x="497.5" y="29.5" fill="var(--calendar-level-1)" rx="2" ry="2"/><rect width="10" height="10" x="497.5" y="42.5" fill="var(--calendar-level-1)" rx="2" ry="2"/><rect width="10" height="10" x="497.5" y="55.5" fill="var(--calendar-level-3)" rx="2" ry="2"/><rect width="10" height="10" x="497.5" y="68.5" fill="var(--calendar-level-2)" rx="2" ry="2"/><rect width="10" height="10" x="497.5" y="81.5" fill="var(--calendar-level-0)" rx="2" ry="2"/><rect width="10" height="10" x="497.5" y="94.5" fill="var(--calendar-level-0)" rx="2" ry="2"/><rect width="10" height="10" x="510.5" y="16.5" fill="var(--calendar-level-2)" rx="2" ry="2"/><rect width="10" height="10" x="510.5" y="29.5" fill="var(--calendar-level-1)" rx="2" ry="2"/><rect width="10" height="10" x="510.5" y="42.5" fill="var(--calendar-level-2)" rx="2" ry="2"/><rect width="10" height="10" x="510.5" y="55.5" fill="var(--calendar-level-0)" rx="2" ry="2"/><rect width="10" height="10" x="510.5" y="68.5" fill="var(--calendar-level-1)" rx="2" ry="2"/><rect width="10" height="10" x="510.5" y="81.5" fill="var(--calendar-level-0)" rx="2" ry="2"/><rect width="10" height="10" x="510.5" y="94.5" fill="var(--calendar-level-0)" rx="2" ry="2"/><rect width="10" height="10" x="523.5" y="16.5" fill="var(--calendar-level-2)" rx="2" ry="2"/><rect width="10" height="10" x="523.5" y="29.5" fill="var(--calendar-level-0)" rx="2" ry="2"/><rect width="10" height="10" x="523.5" y="42.5" fill="var(--calendar-level-0)" rx="2" ry="2"/><rect width="10" height="10" x="523.5" y="55.5" fill="var(--calendar-level-2)" rx="2" ry="2"/><rect width="10" height="10" x="523.5" y="68.5" fill="var(--calendar-level-3)" rx="2" ry="2"/><rect width="10" height="10" x="523.5" y="81.5" fill="var(--calendar-level-0)" rx="2" ry="2"/><rect width="10" height="10" x="523.5" y="94.5" fill="var(--calendar-level-1)" rx="2" ry="2"/><rect width="10" height="10" x="536.5" y="16.5" fill="var(--calendar-level-0)" rx="2" ry="2"/><rect width="10" height="10" x="536.5" y="29.5" fill="var(--calendar-level-0)" rx="2" ry="2"/><rect width="10" height="10" x="536.5" y="42.5" fill="var(--calendar-level-0)" rx="2" ry="2"/><rect width="10" height="10" x="536.5" y="55.5" fill="var(--calendar-level-3)" rx="2" ry="2"/><rect width="10" height="10" x="536.5" y="68.5" fill="var(--calendar-level-3)" rx="2" ry="2"/><rect width="10" height="10" x="536.5" y="81.5" fill="var(--calendar-level-0)" rx="2" ry="2"/><rect width="10" height="10" x="536.5" y="94.5" fill="var(--calendar-level-0)" rx="2" ry="2"/><rect width="10" height="10" x="549.5" y="16.5" fill="var(--calendar-level-3)" rx="2" ry="2"/><rect width="10" height="10" x="549.5" y="29.5" fill="var(--calendar-level-2)" rx="2" ry="2"/><rect width="10" height="10" x="549.5" y="42.5" fill="var(--calendar-level-3)" rx="2" ry="2"/><rect width="10" height="10" x="549.5" y="55.5" fill="var(--calendar-level-0)" rx="2" ry="2"/><rect width="10" height="10" x="549.5" y="68.5" fill="var(--calendar-level-0)" rx="2" ry="2"/><rect width="10" height="10" x="549.5" y="81.5" fill="var(--calendar-level-0)" rx="2" ry="2"/><rect width="10" height="10" x="549.5" y="94.5" fill="var(--calendar-level-0)" rx="2" ry="2"/><rect width="10" height="10" x="562.5" y="16.5" fill="var(--calendar-level-0)" rx="2" ry="2"/><rect width="10" height="10" x="562.5" y="29.5" fill="var(--calendar-level-0)" rx="2" ry="2"/><rect width="10" height="10" x="562.5" y="42.5" fill="var(--calendar-level-0)" rx="2" ry="2"/><rect width="10" height="10" x="562.5" y="55.5" fill="var(--calendar-level-0)" rx="2" ry="2"/><rect width="10" height="10" x="562.5" y="68.5" fill="var(--calendar-level-0)" rx="2" ry="2"/><rect width="10" height="10" x="562.5" y="81.5" fill="var(--calendar-level-0)" rx="2" ry="2"/><rect width="10" height="10" x="562.5" y="94.5" fill="var(--calendar-level-0)" rx="2" ry="2"/><rect width="10" height="10" x="575.5" y="16.5" fill="var(--calendar-level-0)" rx="2" ry="2"/><rect width="10" height="10" x="575.5" y="29.5" fill="var(--calendar-level-0)" rx="2" ry="2"/><rect width="10" height="10" x="575.5" y="42.5" fill="var(--calendar-level-0)" rx="2" ry="2"/><rect width="10" height="10" x="575.5" y="55.5" fill="var(--calendar-level-0)" rx="2" ry="2"/><rect width="10" height="10" x="575.5" y="68.5" fill="var(--calendar-level-0)" rx="2" ry="2"/><rect width="10" height="10" x="575.5" y="81.5" fill="var(--calendar-level-0)" rx="2" ry="2"/><rect width="10" height="10" x="575.5" y="94.5" fill="var(--calendar-level-0)" rx="2" ry="2"/><rect width="10" height="10" x="588.5" y="16.5" fill="var(--calendar-level-0)" rx="2" ry="2"/><rect width="10" height="10" x="588.5" y="29.5" fill="var(--calendar-level-0)" rx="2" ry="2"/><rect width="10" height="10" x="588.5" y="42.5" fill="var(--calendar-level-0)" rx="2" ry="2"/><rect width="10" height="10" x="588.5" y="55.5" fill="var(--calendar-level-2)" rx="2" ry="2"/><rect width="10" height="10" x="588.5" y="68.5" fill="var(--calendar-level-1)" rx="2" ry="2"/><rect width="10" height="10" x="588.5" y="81.5" fill="var(--calendar-level-0)" rx="2" ry="2"/><rect width="10" height="10" x="588.5" y="94.5" fill="var(--calendar-level-0)" rx="2" ry="2"/><rect width="10" height="10" x="601.5" y="16.5" fill="var(--calendar-level-1)" rx="2" ry="2"/><rect width="10" height="10" x="601.5" y="29.5" fill="var(--calendar-level-3)" rx="2" ry="2"/><rect width="10" height="10" x="601.5" y="42.5" fill="var(--calendar-level-2)" rx="2" ry="2"/><rect width="10" height="10" x="601.5" y="55.5" fill="var(--calendar-level-0)" rx="2" ry="2"/><rect width="10" height="10" x="601.5" y="68.5" fill="var(--calendar-level-1)" rx="2" ry="2"/><rect width="10" height="10" x="601.5" y="81.5" fill="var(--calendar-level-0)" rx="2" ry="2"/><rect width="10" height="10" x="601.5" y="94.5" fill="var(--calendar-level-3)" rx="2" ry="2"/><rect width="10" height="10" x="614.5" y="16.5" fill="var(--calendar-level-0)" rx="2" ry="2"/><rect width="10" height="10" x="614.5" y="29.5" fill="var(--calendar-level-1)" rx="2" ry="2"/><rect width="10" height="10" x="614.5" y="42.5" fill="var(--calendar-level-1)" rx="2" ry="2"/><rect width="10" height="10" x="614.5" y="55.5" fill="var(--calendar-level-2)" rx="2" ry="2"/><rect width="10" height="10" x="614.5" y="68.5" fill="var(--calendar-level-0)" rx="2" ry="2"/><rect width="10" height="10" x="614.5" y="81.5" fill="var(--calendar-level-0)" rx="2" ry="2"/><rect width="10" height="10" x="614.5" y="94.5" fill="var(--calendar-level-0)" rx="2" ry="2"/><rect width="10" height="10" x="627.5" y="16.5" fill="var(--calendar-level-3)" rx="2" ry="2"/><rect width="10" height="10" x="627.5" y="29.5" fill="var(--calendar-level-2)" rx="2" ry="2"/><rect width="10" height="10" x="627.5" y="42.5" fill="var(--calendar-level-1)" rx="2" ry="2"/><rect width="10" height="10" x="627.5" y="55.5" fill="var(--calendar-level-1)" rx="2" ry="2"/><rect width="10" height="10" x="627.5" y="68.5" fill="var(--calendar-level-1)" rx="2" ry="2"/><rect width="10" height="10" x="627.5" y="81.5" fill="var(--calendar-level-0)" rx="2" ry="2"/><rect width="10" height="10" x="627.5" y="94.5" fill="var(--calendar-level-0)" rx="2" ry="2"/><rect width="10" height="10" x="640.5" y="16.5" fill="var(--calendar-level-2)" rx="2" ry="2"/><rect width="10" height="10" x="640.5" y="29.5" fill="var(--calendar-level-1)" rx="2" ry="2"/><rect width="10" height="10" x="640.5" y="42.5" fill="var(--calendar-level-3)" rx="2" ry="2"/><rect width="10" height="10" x="640.5" y="55.5" fill="var(--calendar-level-3)" rx="2" ry="2"/><rect width="10" height="10" x="640.5" y="68.5" fill="var(--calendar-level-3)" rx="2" ry="2"/><rect width="10" height="10" x="640.5" y="81.5" fill="var(--calendar-level-0)" rx="2" ry="2"/><rect width="10" height="10" x="640.5" y="94.5" fill="var(--calendar-level-0)" rx="2" ry="2"/><rect width="10" height="10" x="653.5" y="16.5" fill="var(--calendar-level-1)" rx="2" ry="2"/><rect width="10" height="10" x="653.5" y="29.5" fill="var(--calendar-level-2)" rx="2" ry="2"/><rect width="10" height="10" x="653.5" y="42.5" fill="var(--calendar-level-1)" rx="2" ry="2"/><rect width="10" height="10" x="653.5" y="55.5" fill="var(--calendar-level-3)" rx="2" ry="2"/><rect width="10" height="10" x="653.5" y="68.5" fill="var(--calendar-level-3)" rx="2" ry="2"/><rect width="10" height="10" x="653.5" y="81.5" fill="var(--calendar-level-0)" rx="2" ry="2"/><rect width="10" height="10" x="653.5" y="94.5" fill="var(--calendar-level-0)" rx="2" ry="2"/><rect width="10" height="10" x="666.5" y="16.5" fill="var(--calendar-level-2)" rx="2" ry="2"/><rect width="10" height="10" x="666.5" y="29.5" fill="var(--calendar-level-3)" rx="2" ry="2"/><rect width="10" height="10" x="666.5" y="42.5" fill="var(--calendar-level-2)" rx="2" ry="2"/><rect width="10" height="10" x="666.5" y="55.5" fill="var(--calendar-level-3)" rx="2" ry="2"/><rect width="10" height="10" x="666.5" y="68.5" fill="var(--calendar-level-2)" rx="2" ry="2"/><rect width="10" height="10" x="666.5" y="81.5" fill="var(--calendar-level-0)" rx="2" ry="2"/><rect width="10" height="10" x="666.5" y="94.5" fill="var(--calendar-level-0)" rx="2" ry="2"/><rect width="10" height="10" x="679.5" y="16.5" fill="var(--calendar-level-1)" rx="2" ry="2"/><rect width="10" height="10" x="679.5" y="29.5" fill="var(--calendar-level-0)" rx="2" ry="2"/><rect width="10" height="10" x="679.5" y="42.5" fill="var(--calendar-level-1)" rx="2" ry="2"/><rect width="10" height="10" x="679.5" y="55.5" fill="var(--calendar-level-0)" rx="2" ry="2"/><rect width="10" height="10" x="679.5" y="68.5" fill="var(--calendar-level-2)" rx="2" ry="2"/><rect width="10" height="10" x="679.5" y="81.5" fill="var(--calendar-level-0)" rx="2" ry="2"/><rect width="10" height="10" x="679.5" y="94.5" fill="var(--calendar-level-2)" rx="2" ry="2"/><rect width="10" height="10" x="692.5" y="16.5" fill="var(--calendar-level-0)" rx="2" ry="2"/><rect width="10" height="10" x="692.5" y="29.5" fill="var(--calendar-level-2)" rx="2" ry="2"/><rect width="10" height="10" x="692.5" y="42.5" fill="var(--calendar-level-2)" rx="2" ry="2"/><rect width="10" height="10" x="692.5" y="55.5" fill="var(--calendar-level-4)" rx="2" ry="2"/><rect width="10" height="10" x="692.5" y="68.5" fill="var(--calendar-level-0)" rx="2" ry="2"/><rect width="10" height="10" x="692.5" y="81.5" fill="var(--calendar-level-3)" rx="2" ry="2"/><rect width="10" height="10" x="692.5" y="94.5" fill="var(--calendar-level-4)" rx="2" ry="2"/><rect width="10" height="10" x="705.5" y="16.5" fill="var(--calendar-level-0)" rx="2" ry="2"/><rect width="10" height="10" x="705.5" y="29.5" fill="var(--calendar-level-0)" rx="2" ry="2"/><rect width="10" height="10" x="705.5" y="42.5" fill="var(--calendar-level-0)" rx="2" ry="2"/><rect width="10" height="10" x="705.5" y="55.5" fill="var(--calendar-level-0)" rx="2" ry="2"/><rect width="10" height="10" x="705.5" y="68.5" fill="var(--calendar-level-0)" rx="2" ry="2"/><rect width="10" height="10" x="705.5" y="81.5" fill="var(--calendar-level-0)" rx="2" ry="2"/><rect width="10" height="10" x="705.5" y="94.5" fill="var(--calendar-level-0)" rx="2" ry="2"/></g><g aria-label="month labels" text-anchor="start"><text x="29.5" y="11.5">Mar</text><text x="68.5" y="11.5">Apr</text><text x="120.5" y="11.5">May</text><text x="172.5" y="11.5">Jun</text><text x="237.5" y="11.5">Jul</text><text x="289.5" y="11.5">Aug</text><text x="354.5" y="11.5">Sep</text><text x="406.5" y="11.5">Oct</text><text x="458.5" y="11.5">Nov</text><text x="523.5" y="11.5">Dec</text><text x="575.5" y="11.5">Jan</text><text x="627.5" y="11.5">Feb</text><text x="679.5" y="11.5">Mar</text></g><g aria-label="weekday labels" text-anchor="end"><text x="24.5" y="38.5">Tue</text><text x="24.5" y="64.5">Thu</text><text x="24.5" y="90.5">Sat</text></g><g aria-label="legend"><text x="603" y="127" text-anchor="end">Less</text><rect width="10" height="10" x="607" y="118" fill="var(--calendar-level-0)" stroke="rgba(31, 35, 40, 0.05)" stroke-width=".5" rx="2" ry="2"/><rect width="10" height="10" x="620" y="118" fill="var(--calendar-level-1)" stroke="rgba(31, 35, 40, 0.05)" stroke-width=".5" rx="2" ry="2"/><rect width="10" height="10" x="633" y="118" fill="var(--calendar-level-2)" stroke="rgba(31, 35, 40, 0.05)" stroke-width=".5" rx="2" ry="2"/><rect width="10" height="10" x="646" y="118" fill="var(--calendar-level-3)" stroke="rgba(31, 35, 40, 0.05)" stroke-width=".5" rx="2" ry="2"/><rect width="10" height="10" x="659" y="118" fill="var(--calendar-level-4)" stroke="rgba(31, 35, 40, 0.05)" stroke-width=".5" rx="2" ry="2"/><text x="701" y="127" text-anchor="end">More</text></g></svg>